PathFileType	4	(X/Y/Z)	65_2_98_p1_0-161_filt_butterworth.trc
DataRate	CameraRate	NumFrames	NumMarkers	Units	OrigDataRate	OrigDataStartFrame	OrigNumFrames
39.0	39.0	5	27	m	39.0	120	161
Frame#	Time	RHip			RKnee			RAnkle			RBigToe			RSmallToe			RHeel			LHip			LKnee			LAnkle			LBigToe			LSmallToe			LHeel			Neck			Head			Nose			RShoulder			RElbow			RWrist			RThumb			RIndex			RPinky			LShoulder			LElbow			LWrist			LThumb			LIndex			LPinky			
		X1	Y1	Z1	X2	Y2	Z2	X3	Y3	Z3	X4	Y4	Z4	X5	Y5	Z5	X6	Y6	Z6	X7	Y7	Z7	X8	Y8	Z8	X9	Y9	Z9	X10	Y10	Z10	X11	Y11	Z11	X12	Y12	Z12	X13	Y13	Z13	X14	Y14	Z14	X15	Y15	Z15	X16	Y16	Z16	X17	Y17	Z17	X18	Y18	Z18	X19	Y19	Z19	X20	Y20	Z20	X21	Y21	Z21	X22	Y22	Z22	X23	Y23	Z23	X24	Y24	Z24	X25	Y25	Z25	X26	Y26	Z26	X27	Y27	Z27	
120	3.076923076923077	0.40023303899437673	0.6182034658888999	0.8900993648295272	0.3486615285341657	0.12875729927442803	0.9062901027074138	0.31350107748512757	-0.3245728087075193	0.945599121802961	0.2729817166168982	-0.3168656348550157	0.7380378387190638	0.35101941052455654	-0.3214831038403045	0.7652766642409861	0.29111302394034627	-0.4424178857383113	1.0488092797903776	0.1787154274232279	0.6107291623888071	0.9550729041079493	0.14334964742001194	0.13074814286741732	0.9347354315098133	0.13456657638777342	-0.3021455523282868	0.9788173545366973	0.1314235179825551	-0.30717117043528847	0.7689064138123594	0.0739571273648415	-0.318124657588772	0.8266881244584345	0.158080362593758	-0.38667640269398784	1.0504986073297224	0.3777248014962841	1.2077343275721122	1.1733084627156778	0.39181642884199974	1.4633634583431765	1.0968897546280347	0.3768620521999899	1.3139340534638784	1.0337917376159746	0.5116542029851919	1.1221131620156939	1.1849969531893918	0.4983337266739162	1.1339172180489907	0.8378502304502713	0.5527440825428122	1.3207805144566782	0.9809303511634861	0.614769469294405	1.3489667983334037	1.2077859543583531	0.5980124745506226	1.376192195650909	1.1847811268628754	0.5699782190080855	1.372887940148759	1.0602130669299425	0.24058935269682913	1.15756977038587	1.1813348784310387	0.14534990818002605	1.1507527312914918	0.9241031586985304	0.20230728448926696	1.3397004757154478	1.0727851577923526	0.18047138271522367	1.3758323264346388	1.1977216248665177	0.17543280810565698	1.4042035976875618	1.2085006204742512	0.18278833324482355	1.404775050694095	1.1150507966906829	
121	3.102564102564102	0.40076189297641096	0.6176160113111919	0.8905320796703444	0.3486372062113797	0.12911042553534563	0.9059987984735436	0.3135445420831299	-0.32410287283998085	0.9459844612913404	0.27298034976495156	-0.31688095601233407	0.7380680537590588	0.3510209014227831	-0.32122283632138987	0.7657350176574453	0.29112853502717034	-0.4424596380497763	1.0487930725963976	0.17924848323255546	0.6115602246330013	0.9526473551496504	0.14317710824181729	0.12907125122326318	0.9372698801091419	0.1346359479582746	-0.3023902173964518	0.9788819626990952	0.13013317693571191	-0.30498105337012843	0.7691964851559456	0.07390047151559617	-0.3180919417416412	0.8266494460471417	0.15788355861889986	-0.38641838460692934	1.0495156671309318	0.3784797002284811	1.2047473339638726	1.172390665839423	0.39135034760760135	1.4693305759588104	1.0895045306069153	0.37665070130464107	1.3098957992381202	1.0371734759802431	0.513001344243025	1.1213380737258887	1.1748624188921108	0.5025182473909642	1.133818406497845	0.8399373644384045	0.5607790637377842	1.2971597146253515	1.0000499156610394	0.6202164131246354	1.3001852891420929	1.2461747880361376	0.6138764209217744	1.3203421120808239	1.2257717947988755	0.5874740847283468	1.3283327163812768	1.1030646442183896	0.23924372299944022	1.157340417407363	1.1743092747132249	0.14183133891565278	1.1501666468026523	0.9229665134004031	0.18594325855367205	1.3144664582026493	1.0911820091963593	0.15608759698051106	1.330665012205812	1.2467840410533282	0.14973581523208412	1.3567089797137348	1.2582959000693	0.17020708592129463	1.364008534634758	1.1447980106952835	
122	3.128205128205128	0.40140031393826053	0.6171399238616802	0.890840289389336	0.3486731314431757	0.12943248395639045	0.9054261885644049	0.313627778843645	-0.3240045970056612	0.94655743867435	0.2730130129238696	-0.3168913403109217	0.7381189730961301	0.3510287038994589	-0.32079029475191145	0.7662869106902861	0.29113943425561717	-0.44255456614598393	1.0487450715077065	0.1799392311150691	0.6118486607240096	0.9509697432923349	0.14292994106086315	0.1274273925166376	0.9397046917063552	0.13459041747351658	-0.30266087499629535	0.9789323125503316	0.12895715289675078	-0.30375869945050177	0.7705893727848216	0.07389217408164944	-0.31800884098509763	0.8265475375394473	0.15769646775671356	-0.38632661190346446	1.0486084543027552	0.37921138404505417	1.202767715483439	1.1723074878064974	0.39289053820721226	1.4783674463057244	1.086568435371531	0.37770876435840295	1.309951046643018	1.0389443326946164	0.5164162645416135	1.120478482025398	1.1607175731674644	0.5056273862167262	1.125945277546876	0.842614678195654	0.5684108137985027	1.2704309254690194	1.0132435609410846	0.6282065531647223	1.2542276829242403	1.2570602100171642	0.6270873333024851	1.26761806562708	1.2522045651930274	0.6015742132299704	1.286795735743491	1.1283732780224698	0.23637699138053592	1.1558651972647251	1.1676776595650424	0.1374677041898419	1.1422175793122387	0.9193609066024762	0.16863766649692935	1.2865598007790566	1.1019450262817219	0.13727989316033945	1.2891307583583664	1.2761304647154734	0.12927980060274652	1.3125799254123454	1.2912749699033477	0.15625198338438956	1.3251005746305515	1.1656640356348342	
123	3.1538461538461537	0.40219427574423006	0.616664799599492	0.8912560975164723	0.3487184189301712	0.12961174681854776	0.9049069754539195	0.3137514153173763	-0.3241655812308486	0.9472910081767171	0.27301180572959116	-0.31684934020956207	0.7380810150263609	0.35099026690442414	-0.3203729501290452	0.7667117265417296	0.29113402225265284	-0.44269407384246057	1.0486632182929208	0.18064569820176224	0.6113687768327557	0.9504455488412855	0.14267069900760945	0.12575154016448004	0.9422119857293804	0.13443283329017455	-0.3029479148347178	0.9789709736324415	0.12826662823819365	-0.30400321836010596	0.7726471067175402	0.07392067822916104	-0.3178933203921724	0.8264292908946206	0.15747368272916595	-0.38618747434275347	1.0475491973416327	0.37971161888757426	1.201911542117669	1.1726629254900998	0.395954755444872	1.4884127276822334	1.0865943819430035	0.3794070596127776	1.3137724853994317	1.039844175510262	0.5211767240846157	1.119401593543482	1.1461510770561687	0.5068225582599419	1.1107208101902026	0.843883284573496	0.5764214339048332	1.2431155466544945	1.0228163393448444	0.6366193451471331	1.216196260036901	1.2589833382976896	0.6377668551991664	1.2245884554696331	1.266344367692933	0.6122725567826819	1.2534086142329812	1.1403772784493134	0.23198734645577512	1.1513129918409684	1.1646831736878005	0.13244651900558518	1.1272070332842152	0.9115667233787845	0.15072336402949793	1.2609558414195499	1.1059832223237198	0.12585747463993555	1.2565358704582583	1.2901053371718163	0.11768791116039054	1.2776434060464603	1.3083763788314173	0.14361705921504364	1.2927395215137694	1.1809849856670258	
124	3.17948717948718	0.4030317006878125	0.6159794176292831	0.8921305981221952	0.3486841121619227	0.12941875476070075	0.9047392485413183	0.31389171996261983	-0.32456938215848097	0.9481323957340945	0.2729407329560889	-0.3168045162526588	0.7380560810934202	0.3508750255865992	-0.3202140236757253	0.7667785989176109	0.2911278061659359	-0.4428019398294835	1.048608172417936	0.18114684047753818	0.6104736090787846	0.9506531778338342	0.1424391788984266	0.12414587616050526	0.9446631246529861	0.13419385495008257	-0.3032608203364213	0.9789999920534104	0.12833636274027077	-0.3059124767800353	0.7749036950321436	0.0739677098129728	-0.31784770769715015	0.8263413286286205	0.15724780501557556	-0.38593884873387296	1.0464033470264782	0.3796174057378577	1.202096615827759	1.1733259529091753	0.39890363345292745	1.4978650072757562	1.0895445597863862	0.38098780635300467	1.3207564723319625	1.0402014923898082	0.5257793720649078	1.1180237096090746	1.1347270969827934	0.505925516696649	1.0878471337944395	0.8440562598922168	0.5844021638221479	1.2197137409336696	1.026312973229035	0.6438092264645705	1.1911279781240594	1.2641660163571453	0.6464819180200198	1.1965278195091151	1.270588065886566	0.6211329530103604	1.2317306058697768	1.140928911443401	0.22651397668866302	1.1437843695272119	1.167691984039962	0.12739500563234224	1.1049339094591244	0.9025569186642617	0.13388692987125023	1.2408991375289327	1.1020303123497506	0.11983543646321687	1.2351474535738465	1.2923673046218662	0.11389145133987112	1.25616337165717	1.3080738235861509	0.13478448431241177	1.2703746477276903	1.1904216866987962	
